<svg width="15" height="15" fill="none" xmlns="http://www.w3.org/2000/svg"><path d="M14.46 7.5c0 3.867-3.126 7-6.98 7-3.854 0-6.98-3.133-6.98-7s3.126-7 6.98-7c3.854 0 6.98 3.133 6.98 7z" stroke="gray"/><path d="M7.199 11.823a.782.782 0 00.2.232 2.1 2.1 0 01-.46.054c-.33 0-.425-.092-.459-.144-.051-.078-.114-.287-.01-.752v-.002l.874-3.958v-.001c.04-.175.091-.47-.075-.737a.732.732 0 00-.05-.07l.931-.113-1.033 4.684v.002c-.052.24-.07.542.082.805zm1.174-8.456a.622.622 0 01-.194.447.706.706 0 01-.49.194.706.706 0 01-.49-.194.622.622 0 01-.193-.447.62.62 0 01.194-.448.706.706 0 01.49-.194c.187 0 .362.071.49.194a.622.622 0 01.193.448z" fill="#42BD98" stroke="gray"/></svg>